/* XPM */
static char * connect_xpm[] = {
"20 20 4 1",
" 	c None",
".	c #FFFFFF",
"X	c #000000",
"o	c #303030",
"        .......     ",
"   .....XXXXXXXo    ",
"  .XXXXXXXXXXXXoo   ",
" .XX.X..XXXXXXXXXo  ",
"  oXXXXXXXXXXXXXXXo ",
"   oooooXXXXXXXooXXo",
"        ooooooo..XXo",
"              .XXXXo",
"             .XXXoo ",
"            .XXoo   ",
"            .XX..   ",
"             oXXXoo ",
"              oXXXXo",
"        .......ooXXo",
"   .....XXXXXXX..XXo",
"  .XXXXXXXXXXXXXXXo ",
" .XX.X..XXXXXXXXXo  ",
"  oXXXXXXXXXXXXoo   ",
"   oooooXXXXXXXo    ",
"        ooooooo     "};
