/* XPM */
static char * question_xpm[] = {
"20 20 4 1",
" 	c #None",
".	c #FFFFFF",
"X	c #000000",
"o	c #303030",
"       ......       ",
"     ..XXXXXX..     ",
"   ..XXXXXXXXXX..   ",
"  .XXXXXXXXXXXXXX.  ",
"  .XXXXXooooXXXXXo  ",
" .XXXXoo    ooXXXXo ",
" .XXXo        oXXXo ",
" .XXXo        .XXXo ",
"  ooo        .XXXXo ",
"           ..XXXXo  ",
"        ...XXXXXXo  ",
"       .XXXXXXXXo   ",
"       .XXXXXXoo    ",
"       .XXXXoo      ",
"        oooo        ",
"        ....        ",
"       .XXXXo       ",
"       .XXXXo       ",
"       .XXXXo       ",
"        oooo        "};
