/* XPM */
static char * scicors_xpm[] = {
"20 20 4 1",
" 	c None",
".	c #FFFFFF",
"X	c #000000",
"o	c #303030",
"                    ",
"   ...              ",
"  .XXXo             ",
" .XXXXXo      ..... ",
".XXoooXXo   ..XXXXXo",
".XXo .XXo  .XXXXXXXo",
".XXo..XXo .XXXXXXoo ",
" oXXXXXXo.XXXXXoo   ",
"  oXXXXXX.XXXoo     ",
"   oooooXXXoo       ",
"   .....XXX..       ",
"  .XXXXXXoXXX..     ",
" .XXXXXXooXXXXX..   ",
".XXoooXXo oXXXXXX.. ",
".XXo .XXo  oXXXXXXXo",
".XXo..XXo   ooXXXXXo",
" oXXXXXo      ooooo ",
"  oXXXo             ",
"   ooo              ",
"                    "};
